# xmcd
#
# Track frame offsets:
#      182
#      3662
#      12827
#      23127
#      36932
#      48067
#      60400
#      73022
#      85452
#      96570
#      109982
#      122437
#      134377
#      147217
#      157370
#      165710
#      176907
#      187177
# 
# Disc length: 2601 seconds
#
# Revision: 2
# Processed by: cddbd v1.4PL0 Copyright (c) Steve Scherf et al.
#
# Submitted via: FreeRIP 1.20
#
DISCID=030a2712
DTITLE=Hank Williams - Alone and Forsaken
DYEAR=1995
DGENRE=country
TTITLE0=Spoken Intro by Matt Johnson
TTITLE1=Alone and Forsaken
TTITLE2=Please Don't Let me Love You
TTITLE3=Ramblin Man
TTITLE4=Lonesome Whistle
TTITLE5=Lost Highway
TTITLE6=I'm so Lonesome I Could Cry
TTITLE7=Cold, Cold Heart
TTITLE8=I'll Never Get Out of This World Alive
TTITLE9=I've Been Down That Road Before
TTITLE10=I Saw the Light
TTITLE11=You Win Again
TTITLE12=Please Make up Your Mind
TTITLE13=Someday You'll Call my Name
TTITLE14=Ready to Go Home
TTITLE15=Weary Blues From Waitin
TTITLE16=I Can't Escape From You
TTITLE17=Angel of Death
EXTD=
EXTT0=
EXTT1=
EXTT2=
EXTT3=
EXTT4=
EXTT5=
EXTT6=
EXTT7=
EXTT8=
EXTT9=
EXTT10=
EXTT11=
EXTT12=
EXTT13=
EXTT14=
EXTT15=
EXTT16=
EXTT17=
PLAYORDER=
